# xmcd
#
# Track frame offsets: 
#        150
#        2917
#        19227
#        35727
#        47870
#        65577
#        80095
#        98002
#        113527
#        123925
#        129007
#        148607
#        160725
#        167142
#        179342
#        185687
#        199335
#        214745
#        227937
#
# Disc length: 3329 seconds
#
# Revision: 3
# Processed by: cddbd v1.5.2PL0 Copyright (c) Steve Scherf et al.
# Submitted via: ExactAudioCopy v1.3
#
DISCID=0c0cff13
DTITLE=Gang Starr - Step In The Arena
DYEAR=1990
DGENRE=Hip-Hop
TTITLE0=Name Tag (Premier and The Guru)
TTITLE1=Step In The Arena
TTITLE2=Form Of Intellect
TTITLE3=Execution Of A Chump (No More Mr. Nice Guy Pt. 2)
TTITLE4=Who's Gonna Take The Weight
TTITLE5=Beyond Comprehension
TTITLE6=Check The Technique
TTITLE7=Love Sick
TTITLE8=Here Today, Gone Tomorrow
TTITLE9=Game Plan
TTITLE10=Take A Rest
TTITLE11=What You Want This Time?
TTITLE12=Street Ministry
TTITLE13=Just To Get A Rep
TTITLE14=Say Your Prayers
TTITLE15=As I Read My S-A
TTITLE16=Precisely The Right Rhymes
TTITLE17=The Meaning Of The Name
TTITLE18=Credit Is Due (Bonus Track)
EXTD=
EXTT0=
EXTT1=
EXTT2=
EXTT3=
EXTT4=
EXTT5=
EXTT6=
EXTT7=
EXTT8=
EXTT9=
EXTT10=
EXTT11=
EXTT12=
EXTT13=
EXTT14=
EXTT15=
EXTT16=
EXTT17=
EXTT18=
PLAYORDER=
